<svg xmlns="http://www.w3.org/2000/svg" viewBox="0 0 40 40" id="Arrow-Thick-Circle-Up--Streamline-Ultimate.svg" height="20" width="20"><desc>Arrow Thick Circle Up Streamline Icon: https://streamlinehq.com</desc><path d="M20 0a20 20 0 1 0 20 20A20 20 0 0 0 20 0Zm10.483333333333334 20H24.166666666666668a0.4166666666666667 0.4166666666666667 0 0 0 -0.4166666666666667 0.4166666666666667v10.416666666666668a0.8333333333333334 0.8333333333333334 0 0 1 -0.8333333333333334 0.8333333333333334h-5.833333333333334a0.8333333333333334 0.8333333333333334 0 0 1 -0.8333333333333334 -0.8333333333333334v-10.416666666666668A0.4166666666666667 0.4166666666666667 0 0 0 15.833333333333334 20H9.533333333333333a0.8333333333333334 0.8333333333333334 0 0 1 -0.6 -1.4166666666666667l10.483333333333334 -10.483333333333334a0.8500000000000001 0.8500000000000001 0 0 1 1.1833333333333333 0l10.466666666666667 10.483333333333334a0.8333333333333334 0.8333333333333334 0 0 1 -0.5833333333333334 1.4166666666666667Z" fill="#e2e2e2" stroke-width="1"></path></svg>