<svg width="360" height="450" viewBox="0 0 360 450" fill="none" xmlns="http://www.w3.org/2000/svg">
<path d="M198.333 184.334C198.333 184.334 214.25 219 198.966 255.564C215.945 227.805 211.525 194.07 198.333 184.334Z" fill="black"/>
<path d="M174.328 172.11C174.328 172.11 177.388 138.462 209.182 112.213C239.074 87.535 282.368 77.861 307.667 27.667C296.413 68.105 242.729 90.631 211.488 114.601C184.887 135.01 174.328 172.11 174.328 172.11Z" fill="black"/>
<path d="M172.57 156.818C172.57 156.818 163.917 138.734 176.684 115.661C188.718 93.914 208.917 73.481 213 41.251C218.167 63.24 191.165 93.886 178.809 116.078C167.917 135.638 172.57 156.818 172.57 156.818Z" fill="black"/>
<path d="M119.25 110.125C119.25 110.125 129.532 110.217 143.894 123.251C158.255 136.286 160.464 152.415 178.361 159.707C159.358 156.393 152.29 134.959 143.008 126.122C128.298 112.115 120.797 110.125 119.25 110.125Z" fill="black"/>
<path d="M133 117C133 117 100.875 98.125 83.5 138C80.5 121.667 112 96.666 133 117Z" fill="black"/>
<path d="M97.125 145.375C97.125 145.375 127.875 150.375 134.476 194.296C149.875 162.375 123.75 129.25 97.125 145.375Z" fill="black"/>
<path d="M86.75 138.625C86.75 138.625 83 130.75 16.125 161.375C20.391 152.856 64.25 133 86.75 138.625Z" fill="black"/>
<path d="M107.666 134.333C109.875 134.333 111.666 132.542 111.666 130.333C111.666 128.124 109.875 126.333 107.666 126.333C105.457 126.333 103.666 128.124 103.666 130.333C103.666 132.542 105.457 134.333 107.666 134.333Z" fill="black"/>
<path d="M95.25 144.625C95.25 144.625 124.244 151.553 130.59 174.102C136.271 194.287 137.745 215.83 158.917 239.293C135.704 230.186 135.145 196.086 128.787 174.691C123.801 157.913 95.25 144.625 95.25 144.625Z" fill="black"/>
<path d="M126.558 293.927C126.558 293.927 164.782 267.979 157.448 237.473C166.069 246.741 158.626 282.043 126.558 293.927Z" fill="black"/>
<path d="M120.5 123.25C120.5 123.25 135.161 123.254 144.5 137.287C153.84 151.321 160.948 158.244 174.75 168.75C159.026 161.048 149.904 148.021 143.037 139.288C132 125.25 121.845 123.667 120.5 123.25Z" fill="black"/>
<path d="M130.333 127.333C130.333 127.333 102 116.666 93 138C93.017 130.25 111.333 114.333 130.333 127.333Z" fill="black"/>
<path d="M96.242 144.868C96.242 144.868 56.171 139.902 16.146 161.262C21.092 153.12 72.902 134.711 96.242 144.868Z" fill="black"/>
<path d="M170.462 157.292C170.672 157.44 170.9 157.567 171.12 157.717C171.379 157.894 171.745 157.916 171.952 158.133" fill="black"/>
<path d="M170.462 157.292C170.672 157.44 170.9 157.567 171.12 157.717C171.379 157.894 171.745 157.916 171.952 158.133" stroke="white" stroke-width="0.5" stroke-miterlimit="10"/>
<path d="M133.126 318.313C133.126 318.313 174.391 297.539 171.073 266.337C178.42 276.646 166.464 310.686 133.126 318.313Z" fill="black"/>
<path d="M152.962 328.59C152.962 328.59 196.447 301.09 195.073 264.004C201.911 275.854 187.503 317.32 152.962 328.59Z" fill="black"/>
<path d="M197.941 183.593C199.027 184.156 213.703 195.834 261.013 169.297C241.292 185.799 203.754 195.945 197.941 183.593Z" fill="black"/>
<path d="M231.191 151.593C231.191 151.593 250.704 161.731 294.263 137.297C274.542 153.799 237.005 163.944 231.191 151.593Z" fill="black"/>
<path d="M262.441 118.093C262.441 118.093 281.954 128.231 325.513 103.797C305.792 120.299 268.255 130.444 262.441 118.093Z" fill="black"/>
<path d="M284.859 94.843C284.859 94.843 300.621 105.294 335.021 81.624C319.538 97.773 289.711 107.274 284.859 94.843Z" fill="black"/>
<path d="M295.889 71.918C295.889 71.918 309.824 80.384 331.331 53.311C322.703 70.882 301.941 83.555 295.889 71.918Z" fill="black"/>
<path d="M209.848 90.059C209.848 90.059 226.108 88.8801 227.942 54.3521C231.096 73.6711 221.523 96.031 209.848 90.059Z" fill="black"/>
<path d="M37.931 149.707C37.931 149.707 82.709 137.79 94.209 144.279C87.517 134.558 42.837 142.813 37.931 149.707Z" fill="black"/>
<path d="M41.659 148.18C41.659 148.18 80 138.75 89.751 140.749C84.574 133.047 46.187 142.215 41.659 148.18Z" fill="black"/>
<path d="M91.917 143.333C91.263 143.357 89.455 143.209 89.009 142.852C89.67 142.543 91.067 142.953 91.75 143.083" fill="black"/>
<path d="M91.917 143.333C91.263 143.357 89.455 143.209 89.009 142.852C89.67 142.543 91.067 142.953 91.75 143.083" stroke="black" stroke-miterlimit="10"/>
<path d="M90.114 141.628C90.664 141.915 91.239 142.174 91.785 142.484C92.267 142.759 92.642 143.241 93.114 143.401" fill="black"/>
<path d="M90.114 141.628C90.664 141.915 91.239 142.174 91.785 142.484C92.267 142.759 92.642 143.241 93.114 143.401" stroke="black" stroke-miterlimit="10"/>
<path d="M95.719 144.625C94.357 144.216 94.938 144.156 91.531 141.687C91.334 141.544 90.819 141.141 90.627 141.067C89.276 139.684 87.395 138.866 85.695 137.986C85.205 137.732 73.875 137.062 84.137 138.845C84.173 138.851 84.205 138.879 84.238 138.896C84.204 139.054 84.303 139.194 84.561 139.221C85.228 139.291 85.939 140.075 86.421 140.489C87.035 141.015 87.623 141.581 88.273 142.063C88.308 142.11 88.351 142.156 88.414 142.195C88.733 142.392 89.058 142.581 89.381 142.772C89.795 143.131 90.234 143.428 90.765 143.611C90.892 143.655 91.072 143.651 91.264 143.614C91.872 144.026 92.608 144.256 93.312 144.467C93.764 144.602 94.184 144.65 94.589 144.416C94.791 144.301 96.174 144.762 95.719 144.625Z" fill="black"/>
<path d="M127.333 150.667C135.666 155 137.333 168.334 139.333 176.334C141.666 187.001 145.666 194.667 152.666 202.667" fill="black"/>
<path d="M126.576 151.963C134.847 156.786 135.844 168.3 137.887 176.733C140.375 187 144.714 195.693 151.606 203.729C152.868 205.2 154.98 203.067 153.727 201.608C146.047 192.655 142.303 182.946 139.775 171.559C137.968 163.421 135.845 153.896 128.09 149.374C126.416 148.396 124.907 150.989 126.576 151.963Z" fill="black"/>
<path d="M134.667 164C139 181.667 138.334 202 155.334 213.667Z" fill="black"/>
<path d="M133.22 164.399C137.583 182.762 137.799 202.927 154.576 214.962C156.152 216.093 157.647 213.488 156.091 212.372C140.196 200.971 140.228 180.92 136.113 163.601C135.666 161.72 132.773 162.518 133.22 164.399Z" fill="black"/>
<path d="M134.333 170.667C135.333 184 134.833 195 142 209.334Z" fill="black"/>
<path d="M132.833 170.667C133.819 184.491 134.563 197.384 140.704 210.091C141.546 211.833 144.132 210.311 143.295 208.577C137.408 196.396 136.778 183.907 135.833 170.666C135.697 168.749 132.696 168.735 132.833 170.667Z" fill="black"/>
</svg>
