<svg width="25" height="25" viewBox="0 0 28 28" fill="none" xmlns="http://www.w3.org/2000/svg">
<g clip-path="url(#clip0_323_15)">
<path d="M20.384 16.779C20.0375 16.6052 18.333 15.7675 18.0157 15.6508C17.6972 15.5353 17.4662 15.4782 17.234 15.8258C17.0042 16.1723 16.3392 16.9528 16.1373 17.1838C15.9355 17.416 15.7325 17.444 15.386 17.2713C15.0395 17.0963 13.9218 16.7312 12.5977 15.5505C11.5675 14.6312 10.871 13.496 10.6692 13.1483C10.4673 12.8018 10.6482 12.614 10.8208 12.4413C10.9772 12.2862 11.1685 12.0365 11.3412 11.8347C11.515 11.6317 11.5722 11.487 11.6888 11.2548C11.8043 11.0238 11.7472 10.822 11.6597 10.6482C11.5722 10.4743 10.8792 8.76751 10.591 8.07334C10.3087 7.39784 10.0228 7.49001 9.8105 7.47834C9.60866 7.46901 9.37766 7.46668 9.1455 7.46668C8.9145 7.46668 8.53883 7.55301 8.2215 7.90068C7.90416 8.24718 7.00816 9.08601 7.00816 10.7928C7.00816 12.4985 8.25066 14.147 8.42333 14.3792C8.59716 14.6102 10.8687 18.1125 14.3465 19.614C15.1737 19.971 15.8188 20.1845 16.3228 20.3432C17.1535 20.608 17.9095 20.5707 18.5057 20.4808C19.1718 20.3817 20.5567 19.642 20.846 18.8323C21.1353 18.0227 21.1353 17.3285 21.0478 17.1838C20.9615 17.0392 20.7317 16.9528 20.384 16.779ZM14.0583 25.4158H14.0537C11.9884 25.416 9.96109 24.8607 8.18416 23.8082L7.763 23.5585L3.3985 24.7042L4.56283 20.4482L4.28866 20.0118C3.13418 18.1735 2.52343 16.046 2.527 13.8752C2.52816 7.51684 7.70233 2.34384 14.063 2.34384C17.143 2.34384 20.0387 3.54551 22.2157 5.72484C23.2898 6.79423 24.1412 8.06602 24.7205 9.46663C25.2998 10.8672 25.5957 12.3688 25.5908 13.8845C25.5873 20.2428 20.4143 25.4158 14.0583 25.4158ZM23.8735 4.06934C22.5881 2.77542 21.0586 1.74947 19.3738 1.05094C17.6889 0.352417 15.8822 -0.00479377 14.0583 9.66017e-06C6.41083 9.66017e-06 0.186664 6.22418 0.183164 13.874C0.183164 16.3193 0.821331 18.7063 2.03583 20.8098L0.0664978 28L7.42233 26.0703C9.45652 27.1786 11.736 27.7594 14.0525 27.7597H14.0583C21.7047 27.7597 27.93 21.5355 27.9335 13.8845C27.9391 12.0613 27.5832 10.2551 26.8863 8.57038C26.1894 6.88564 25.1654 5.35579 23.8735 4.06934Z" fill="#ac936b"/>
</g>
<defs>
<clipPath id="clip0_323_15">
<rect width="28" height="28" fill="white"/>
</clipPath>
</defs>
</svg>
